<svg width="356" height="68" viewBox="0 0 356 68" fill="none" xmlns="http://www.w3.org/2000/svg">
<path d="M56.0781 18.9531C58.4844 18.9531 60.625 19.1641 62.5 19.5859C64.3906 20.0078 65.9844 20.5938 67.2812 21.3438C68.5938 22.0938 69.5938 23 70.2812 24.0625C70.9688 25.1094 71.3125 26.2656 71.3125 27.5312V30.9531C71.3125 32.2969 71.0469 33.3828 70.5156 34.2109C70 35.0391 69.2812 35.7031 68.3594 36.2031C69.125 36.4219 69.8281 36.7031 70.4688 37.0469C71.125 37.3906 71.6797 37.8125 72.1328 38.3125C72.6016 38.7969 72.9609 39.3672 73.2109 40.0234C73.4766 40.6641 73.6094 41.4062 73.6094 42.25V46.8438C73.6094 48.1094 73.1484 49.2734 72.2266 50.3359C71.3047 51.3828 70.0469 52.2891 68.4531 53.0547C66.8594 53.8203 65 54.4141 62.875 54.8359C60.75 55.2578 58.4844 55.4688 56.0781 55.4688C54.7344 55.4688 53.3594 55.4141 51.9531 55.3047C50.5469 55.2109 49.1797 55.0781 47.8516 54.9062C46.5391 54.7344 45.3047 54.5391 44.1484 54.3203C42.9922 54.1016 42 53.875 41.1719 53.6406V20.7344C42 20.5 42.9922 20.2812 44.1484 20.0781C45.3047 19.8594 46.5391 19.6719 47.8516 19.5156C49.1797 19.3438 50.5469 19.2109 51.9531 19.1172C53.3594 19.0078 54.7344 18.9531 56.0781 18.9531ZM55.8906 39.4375C55.0469 39.4375 54.2031 39.4453 53.3594 39.4609C52.5156 39.4609 51.6953 39.4844 50.8984 39.5312C50.1172 39.5625 49.3672 39.6172 48.6484 39.6953C47.9297 39.7734 47.2812 39.875 46.7031 40V48.9062C47.0156 49.0156 47.4141 49.1406 47.8984 49.2812C48.3984 49.4219 49.0234 49.5547 49.7734 49.6797C50.5234 49.8047 51.4219 49.9141 52.4688 50.0078C53.5156 50.0859 54.75 50.125 56.1719 50.125C57.9219 50.125 59.4922 49.9844 60.8828 49.7031C62.2891 49.4219 63.4688 49.0469 64.4219 48.5781C65.3906 48.1094 66.1328 47.5703 66.6484 46.9609C67.1641 46.3359 67.4219 45.6875 67.4219 45.0156V43C67.4219 42.2656 67.0938 41.6641 66.4375 41.1953C65.7812 40.7266 64.9141 40.3672 63.8359 40.1172C62.7578 39.8516 61.5234 39.6719 60.1328 39.5781C58.7578 39.4844 57.3438 39.4375 55.8906 39.4375ZM46.7031 33.625C47.6719 33.8125 48.7734 33.9375 50.0078 34C51.2578 34.0625 52.6719 34.0938 54.25 34.0938C55.6094 34.0938 56.9609 34.0469 58.3047 33.9531C59.6484 33.8438 60.8594 33.6719 61.9375 33.4375C63.0156 33.1875 63.8906 32.8594 64.5625 32.4531C65.2344 32.0312 65.5781 31.5 65.5938 30.8594V29.3594C65.5938 28.6875 65.4297 28.0469 65.1016 27.4375C64.7891 26.8125 64.2578 26.2656 63.5078 25.7969C62.7734 25.3281 61.8047 24.9531 60.6016 24.6719C59.3984 24.3906 57.9219 24.25 56.1719 24.25C54.75 24.25 53.5156 24.2969 52.4688 24.3906C51.4219 24.4688 50.5234 24.5703 49.7734 24.6953C49.0234 24.8203 48.3984 24.9531 47.8984 25.0938C47.4141 25.2344 47.0156 25.3594 46.7031 25.4688V33.625ZM95.8281 27.8594C97.1406 27.8594 98.4453 27.9219 99.7422 28.0469C101.055 28.1719 102.312 28.375 103.516 28.6562C104.719 28.9375 105.844 29.2891 106.891 29.7109C107.938 30.1328 108.844 30.6406 109.609 31.2344C110.391 31.8281 111 32.5156 111.438 33.2969C111.875 34.0625 112.094 34.9219 112.094 35.875V48.0156C112.094 48.8594 111.875 49.6328 111.438 50.3359C111 51.0391 110.391 51.6719 109.609 52.2344C108.844 52.7812 107.938 53.2578 106.891 53.6641C105.844 54.0703 104.719 54.4062 103.516 54.6719C102.312 54.9375 101.055 55.1328 99.7422 55.2578C98.4297 55.3984 97.125 55.4688 95.8281 55.4688C94.5312 55.4688 93.2266 55.3984 91.9141 55.2578C90.6172 55.1328 89.3672 54.9375 88.1641 54.6719C86.9609 54.4062 85.8359 54.0703 84.7891 53.6641C83.7578 53.2578 82.8516 52.7812 82.0703 52.2344C81.3047 51.6719 80.7031 51.0469 80.2656 50.3594C79.8281 49.6562 79.6094 48.875 79.6094 48.0156V35.875C79.6094 34.9219 79.8281 34.0625 80.2656 33.2969C80.7031 32.5156 81.3047 31.8281 82.0703 31.2344C82.8516 30.6406 83.7578 30.1328 84.7891 29.7109C85.8359 29.2891 86.9609 28.9375 88.1641 28.6562C89.3672 28.375 90.6172 28.1719 91.9141 28.0469C93.2266 27.9219 94.5312 27.8594 95.8281 27.8594ZM85.5625 46.5156C85.5625 47.2344 85.8594 47.8594 86.4531 48.3906C87.0625 48.9062 87.8516 49.3438 88.8203 49.7031C89.7891 50.0469 90.8828 50.3047 92.1016 50.4766C93.3359 50.6484 94.5781 50.7344 95.8281 50.7344C97.1406 50.7344 98.4062 50.6406 99.625 50.4531C100.859 50.2656 101.953 50 102.906 49.6562C103.859 49.2969 104.617 48.8594 105.18 48.3438C105.758 47.8125 106.047 47.2031 106.047 46.5156V36.7656C106.047 36.0938 105.758 35.4922 105.18 34.9609C104.617 34.4141 103.859 33.9609 102.906 33.6016C101.953 33.2266 100.859 32.9453 99.625 32.7578C98.4062 32.5547 97.1406 32.4531 95.8281 32.4531C94.5781 32.4531 93.3359 32.5469 92.1016 32.7344C90.8828 32.9062 89.7891 33.1719 88.8203 33.5312C87.8516 33.8906 87.0625 34.3438 86.4531 34.8906C85.8594 35.4219 85.5625 36.0469 85.5625 36.7656V46.5156ZM144.203 45.4375C143.812 45.0938 143.328 44.7578 142.75 44.4297C142.172 44.1016 141.461 43.8125 140.617 43.5625C139.773 43.2969 138.766 43.0859 137.594 42.9297C136.438 42.7578 135.078 42.6719 133.516 42.6719C132.125 42.6719 130.805 42.7031 129.555 42.7656C128.32 42.8125 127.234 42.9688 126.297 43.2344C125.359 43.4844 124.617 43.8906 124.07 44.4531C123.523 45.0156 123.25 45.7969 123.25 46.7969V49.7969C124.625 50.0156 126.141 50.1953 127.797 50.3359C129.453 50.4766 131.297 50.5469 133.328 50.5469C134.953 50.5469 136.68 50.4922 138.508 50.3828C140.352 50.2578 142.25 50.0156 144.203 49.6562V45.4375ZM133.656 28.2812C134.438 28.2812 135.383 28.3203 136.492 28.3984C137.602 28.4766 138.758 28.6172 139.961 28.8203C141.164 29.0078 142.352 29.2734 143.523 29.6172C144.711 29.9453 145.773 30.3828 146.711 30.9297C147.664 31.4609 148.43 32.1016 149.008 32.8516C149.586 33.6016 149.875 34.4844 149.875 35.5V53.6406C148.562 53.9062 147.078 54.1328 145.422 54.3203C144 54.4922 142.305 54.6484 140.336 54.7891C138.367 54.9297 136.172 55 133.75 55C131.344 55 128.781 54.8984 126.062 54.6953C123.359 54.4922 120.531 54.1406 117.578 53.6406V45.2031C117.578 44.2969 117.789 43.5078 118.211 42.8359C118.648 42.1484 119.242 41.5625 119.992 41.0781C120.742 40.5938 121.625 40.1953 122.641 39.8828C123.656 39.5703 124.75 39.3203 125.922 39.1328C127.094 38.9453 128.312 38.8203 129.578 38.7578C130.844 38.6797 132.109 38.6406 133.375 38.6406C135.297 38.6406 136.93 38.7656 138.273 39.0156C139.633 39.25 140.758 39.5078 141.648 39.7891C142.68 40.1328 143.531 40.5156 144.203 40.9375V37.1406C144.203 36.5 144.047 35.9531 143.734 35.5C143.422 35.0312 143 34.6406 142.469 34.3281C141.938 34 141.328 33.7422 140.641 33.5547C139.953 33.3516 139.234 33.1953 138.484 33.0859C137.734 32.9766 136.969 32.9062 136.188 32.875C135.422 32.8438 134.703 32.8281 134.031 32.8281C133.328 32.8281 132.578 32.8516 131.781 32.8984C130.984 32.9297 130.188 33 129.391 33.1094C128.609 33.2188 127.852 33.375 127.117 33.5781C126.398 33.7656 125.758 34.0234 125.195 34.3516C124.633 34.6797 124.18 35.0781 123.836 35.5469C123.508 36 123.344 36.5469 123.344 37.1875L117.531 35.6875C117.531 34.6406 117.789 33.7344 118.305 32.9688C118.82 32.1875 119.5 31.5234 120.344 30.9766C121.203 30.4297 122.188 29.9844 123.297 29.6406C124.406 29.2812 125.555 29.0078 126.742 28.8203C127.945 28.6172 129.141 28.4766 130.328 28.3984C131.516 28.3203 132.625 28.2812 133.656 28.2812ZM178.047 28.2812C178.047 29.9062 177.992 31.6016 177.883 33.3672C177.773 35.1172 177.562 36.9219 177.25 38.7812H171.578C171.719 38.25 171.852 37.6719 171.977 37.0469C172.07 36.5156 172.156 35.8984 172.234 35.1953C172.328 34.4766 172.375 33.7188 172.375 32.9219C171 32.9531 169.859 33.0859 168.953 33.3203C168.062 33.5391 167.32 33.8047 166.727 34.1172C166.133 34.4141 165.648 34.7188 165.273 35.0312C164.898 35.3438 164.562 35.5938 164.266 35.7812V55H158.266V35.6406C158.203 35.1406 158.055 34.7188 157.82 34.375C157.602 34.0312 157.367 33.75 157.117 33.5312C156.836 33.2656 156.516 33.0469 156.156 32.875L158.641 28.2812C159.219 28.4844 159.789 28.7578 160.352 29.1016C160.836 29.3984 161.344 29.7812 161.875 30.25C162.422 30.7031 162.906 31.2656 163.328 31.9375C164.125 31.3906 164.859 30.9297 165.531 30.5547C166.203 30.1641 166.852 29.8359 167.477 29.5703C168.117 29.3047 168.773 29.1016 169.445 28.9609C170.133 28.8047 170.883 28.6797 171.695 28.5859C172.523 28.4922 173.445 28.4297 174.461 28.3984C175.492 28.3516 176.688 28.3125 178.047 28.2812ZM198.766 28.2812C200.141 28.2812 201.578 28.4375 203.078 28.75C204.594 29.0625 206.062 29.4688 207.484 29.9688V19.3281H213.625V53.1719C212.797 53.4219 211.805 53.6562 210.648 53.875C209.508 54.0938 208.281 54.2891 206.969 54.4609C205.656 54.6172 204.289 54.75 202.867 54.8594C201.461 54.9531 200.094 55 198.766 55C196.359 55 194.211 54.8359 192.32 54.5078C190.43 54.1641 188.828 53.6406 187.516 52.9375C186.203 52.2344 185.203 51.3438 184.516 50.2656C183.828 49.1875 183.484 47.9062 183.484 46.4219V36.8594C183.484 35.375 183.828 34.0938 184.516 33.0156C185.203 31.9375 186.203 31.0469 187.516 30.3438C188.828 29.6406 190.43 29.125 192.32 28.7969C194.211 28.4531 196.359 28.2812 198.766 28.2812ZM200.453 50.6406C201.078 50.6406 201.711 50.6094 202.352 50.5469C203.008 50.4844 203.641 50.3984 204.25 50.2891C204.875 50.1797 205.461 50.0547 206.008 49.9141C206.57 49.7734 207.062 49.625 207.484 49.4688V34.75C206.406 34.2344 205.297 33.8125 204.156 33.4844C203.031 33.1406 201.797 32.9688 200.453 32.9688C199.484 32.9688 198.539 32.9922 197.617 33.0391C196.711 33.0703 195.859 33.1562 195.062 33.2969C194.266 33.4219 193.531 33.6094 192.859 33.8594C192.188 34.0938 191.609 34.4141 191.125 34.8203C190.656 35.2266 190.289 35.7266 190.023 36.3203C189.758 36.9141 189.625 37.625 189.625 38.4531V45.3438C189.625 46.6094 189.914 47.6016 190.492 48.3203C191.086 49.0234 191.875 49.5469 192.859 49.8906C193.844 50.2344 194.992 50.4453 196.305 50.5234C197.617 50.6016 199 50.6406 200.453 50.6406ZM231.25 24.7656C230.328 24.8438 229.484 24.9297 228.719 25.0234C227.953 25.1016 227.219 25.1875 226.516 25.2812V49C227.547 49.1406 228.688 49.2656 229.938 49.375C231.188 49.4844 232.547 49.5625 234.016 49.6094C234.484 49.6406 234.945 49.6562 235.398 49.6562C235.852 49.6562 236.312 49.6562 236.781 49.6562C237.25 49.6562 237.719 49.6562 238.188 49.6562C238.656 49.6562 239.125 49.6406 239.594 49.6094C241.344 49.5625 242.898 49.4766 244.258 49.3516C245.633 49.2109 246.875 49.0312 247.984 48.8125C248.266 47.2656 248.5 45.3906 248.688 43.1875H254.031C253.938 44.8594 253.805 46.5703 253.633 48.3203C253.461 50.0547 253.219 51.8438 252.906 53.6875C249.938 54.1875 247.109 54.5234 244.422 54.6953C241.75 54.8672 239.234 54.9531 236.875 54.9531C234.453 54.9531 231.891 54.8672 229.188 54.6953C226.484 54.5234 223.672 54.1875 220.75 53.6875V20.5469C222.609 20.2188 224.406 19.9766 226.141 19.8203C227.891 19.6484 229.594 19.5156 231.25 19.4219V24.7656ZM273.906 27.8594C275.219 27.8594 276.523 27.9219 277.82 28.0469C279.133 28.1719 280.391 28.375 281.594 28.6562C282.797 28.9375 283.922 29.2891 284.969 29.7109C286.016 30.1328 286.922 30.6406 287.688 31.2344C288.469 31.8281 289.078 32.5156 289.516 33.2969C289.953 34.0625 290.172 34.9219 290.172 35.875V48.0156C290.172 48.8594 289.953 49.6328 289.516 50.3359C289.078 51.0391 288.469 51.6719 287.688 52.2344C286.922 52.7812 286.016 53.2578 284.969 53.6641C283.922 54.0703 282.797 54.4062 281.594 54.6719C280.391 54.9375 279.133 55.1328 277.82 55.2578C276.508 55.3984 275.203 55.4688 273.906 55.4688C272.609 55.4688 271.305 55.3984 269.992 55.2578C268.695 55.1328 267.445 54.9375 266.242 54.6719C265.039 54.4062 263.914 54.0703 262.867 53.6641C261.836 53.2578 260.93 52.7812 260.148 52.2344C259.383 51.6719 258.781 51.0469 258.344 50.3594C257.906 49.6562 257.688 48.875 257.688 48.0156V35.875C257.688 34.9219 257.906 34.0625 258.344 33.2969C258.781 32.5156 259.383 31.8281 260.148 31.2344C260.93 30.6406 261.836 30.1328 262.867 29.7109C263.914 29.2891 265.039 28.9375 266.242 28.6562C267.445 28.375 268.695 28.1719 269.992 28.0469C271.305 27.9219 272.609 27.8594 273.906 27.8594ZM263.641 46.5156C263.641 47.2344 263.938 47.8594 264.531 48.3906C265.141 48.9062 265.93 49.3438 266.898 49.7031C267.867 50.0469 268.961 50.3047 270.18 50.4766C271.414 50.6484 272.656 50.7344 273.906 50.7344C275.219 50.7344 276.484 50.6406 277.703 50.4531C278.938 50.2656 280.031 50 280.984 49.6562C281.938 49.2969 282.695 48.8594 283.258 48.3438C283.836 47.8125 284.125 47.2031 284.125 46.5156V36.7656C284.125 36.0938 283.836 35.4922 283.258 34.9609C282.695 34.4141 281.938 33.9609 280.984 33.6016C280.031 33.2266 278.938 32.9453 277.703 32.7578C276.484 32.5547 275.219 32.4531 273.906 32.4531C272.656 32.4531 271.414 32.5469 270.18 32.7344C268.961 32.9062 267.867 33.1719 266.898 33.5312C265.93 33.8906 265.141 34.3438 264.531 34.8906C263.938 35.4219 263.641 36.0469 263.641 36.7656V46.5156ZM316.703 28.2812C316.703 29.9062 316.648 31.6016 316.539 33.3672C316.43 35.1172 316.219 36.9219 315.906 38.7812H310.234C310.375 38.25 310.508 37.6719 310.633 37.0469C310.727 36.5156 310.812 35.8984 310.891 35.1953C310.984 34.4766 311.031 33.7188 311.031 32.9219C309.656 32.9531 308.516 33.0859 307.609 33.3203C306.719 33.5391 305.977 33.8047 305.383 34.1172C304.789 34.4141 304.305 34.7188 303.93 35.0312C303.555 35.3438 303.219 35.5938 302.922 35.7812V55H296.922V35.6406C296.859 35.1406 296.711 34.7188 296.477 34.375C296.258 34.0312 296.023 33.75 295.773 33.5312C295.492 33.2656 295.172 33.0469 294.812 32.875L297.297 28.2812C297.875 28.4844 298.445 28.7578 299.008 29.1016C299.492 29.3984 300 29.7812 300.531 30.25C301.078 30.7031 301.562 31.2656 301.984 31.9375C302.781 31.3906 303.516 30.9297 304.188 30.5547C304.859 30.1641 305.508 29.8359 306.133 29.5703C306.773 29.3047 307.43 29.1016 308.102 28.9609C308.789 28.8047 309.539 28.6797 310.352 28.5859C311.18 28.4922 312.102 28.4297 313.117 28.3984C314.148 28.3516 315.344 28.3125 316.703 28.2812ZM337.422 28.2812C338.797 28.2812 340.234 28.4375 341.734 28.75C343.25 29.0625 344.719 29.4688 346.141 29.9688V19.3281H352.281V53.1719C351.453 53.4219 350.461 53.6562 349.305 53.875C348.164 54.0938 346.938 54.2891 345.625 54.4609C344.312 54.6172 342.945 54.75 341.523 54.8594C340.117 54.9531 338.75 55 337.422 55C335.016 55 332.867 54.8359 330.977 54.5078C329.086 54.1641 327.484 53.6406 326.172 52.9375C324.859 52.2344 323.859 51.3438 323.172 50.2656C322.484 49.1875 322.141 47.9062 322.141 46.4219V36.8594C322.141 35.375 322.484 34.0938 323.172 33.0156C323.859 31.9375 324.859 31.0469 326.172 30.3438C327.484 29.6406 329.086 29.125 330.977 28.7969C332.867 28.4531 335.016 28.2812 337.422 28.2812ZM339.109 50.6406C339.734 50.6406 340.367 50.6094 341.008 50.5469C341.664 50.4844 342.297 50.3984 342.906 50.2891C343.531 50.1797 344.117 50.0547 344.664 49.9141C345.227 49.7734 345.719 49.625 346.141 49.4688V34.75C345.062 34.2344 343.953 33.8125 342.812 33.4844C341.688 33.1406 340.453 32.9688 339.109 32.9688C338.141 32.9688 337.195 32.9922 336.273 33.0391C335.367 33.0703 334.516 33.1562 333.719 33.2969C332.922 33.4219 332.188 33.6094 331.516 33.8594C330.844 34.0938 330.266 34.4141 329.781 34.8203C329.312 35.2266 328.945 35.7266 328.68 36.3203C328.414 36.9141 328.281 37.625 328.281 38.4531V45.3438C328.281 46.6094 328.57 47.6016 329.148 48.3203C329.742 49.0234 330.531 49.5469 331.516 49.8906C332.5 50.2344 333.648 50.4453 334.961 50.5234C336.273 50.6016 337.656 50.6406 339.109 50.6406Z" fill="#fff"/>
<path fill-rule="evenodd" clip-rule="evenodd" d="M28 15.2948C24.5162 15.2948 22.0106 17.1383 20.5635 19.4535C19.2694 21.524 18.7309 23.9257 18.6259 26.0292C17.4664 26.6025 16.2702 27.1772 15.0696 27.7541C12.181 29.1419 9.26724 30.5419 6.77888 31.9638C4.93115 33.0197 3.3202 34.0817 2.10756 35.2232C0.894927 36.3643 0.000225026 37.6495 0.000225026 39.1656C0.000225026 39.8107 0.315061 40.3365 0.669897 40.7223C1.02525 41.1081 1.45105 41.4078 1.93595 41.6875C2.90562 42.247 4.12819 42.7133 5.47295 43.1166C7.47075 43.7161 9.70815 44.1618 11.6535 44.3524C10.1114 47.0098 8.16256 49.4945 6.29211 51.8794C5.81574 52.4867 5.34445 53.0876 4.88625 53.6833C2.27763 57.0745 0.000225026 60.3267 0.000225026 63.9396C0.000225026 63.992 0.000166448 64.0433 0.000109066 64.0935C-0.000398453 64.5376 -0.000812365 64.8998 0.0402249 65.2634C0.086031 65.6682 0.202288 66.1735 0.609252 66.5739C1.01635 66.9744 1.51466 67.082 1.9206 67.1261C2.28677 67.1663 2.65535 67.1659 3.10904 67.1655C3.1583 67.1654 3.20856 67.1654 3.25994 67.1654H17.6523C17.7598 67.1654 17.8642 67.166 17.966 67.1667C18.8546 67.1724 19.543 67.1768 20.2491 66.7228C20.9308 66.2847 21.2374 65.7077 21.6716 64.8903C21.7387 64.764 21.8089 64.6319 21.8839 64.4938L21.8953 64.4731L21.9056 64.4517C21.9056 64.4517 23.1602 61.9008 24.6571 59.3694C25.4054 58.1039 26.2179 56.8435 26.9247 55.9504C27.2782 55.5039 27.609 55.1498 27.8472 54.9498C27.9055 54.9011 27.9382 54.8841 27.9731 54.866C27.9818 54.8615 27.9906 54.8569 28 54.8518V15.2948Z" fill="#fff"/>
</svg>
