<svg width="15" height="15" viewBox="0 0 15 15" fill="none" xmlns="http://www.w3.org/2000/svg">
<path fill-rule="evenodd" clip-rule="evenodd" d="M11.1383 12.2315C9.96552 13.1667 8.47946 13.7257 6.86284 13.7257C3.0726 13.7257 0 10.6531 0 6.86284C0 3.0726 3.0726 0 6.86284 0C10.6531 0 13.7257 3.0726 13.7257 6.86284C13.7257 8.47556 13.1694 9.95836 12.2382 11.1298L14.7622 13.6318C15.0675 13.9345 15.0696 14.4273 14.767 14.7326C14.4643 15.0379 13.9715 15.0401 13.6662 14.7374L11.1383 12.2315ZM12.1659 6.88233C12.1659 9.80039 9.80039 12.1659 6.88233 12.1659C3.96428 12.1659 1.59873 9.80039 1.59873 6.88233C1.59873 3.96428 3.96428 1.59873 6.88233 1.59873C9.80039 1.59873 12.1659 3.96428 12.1659 6.88233Z" fill="black"/>
</svg>
