<svg width="29" height="58" viewBox="0 0 29 58" fill="none" xmlns="http://www.w3.org/2000/svg">
<rect x="10" y="5" width="9" height="7" fill="white"/>
<path fill-rule="evenodd" clip-rule="evenodd" d="M12.6686 0.713803C13.7 -0.237936 15.3 -0.237934 16.3314 0.713805L27.6538 11.161C27.8347 11.328 27.9851 11.5084 28.1069 11.6978C28.6602 12.2702 29 13.0462 29 13.9008V54.8121C29 56.5727 27.5574 58 25.7778 58H3.22222C1.44264 58 0 56.5727 0 54.8121V13.9008C0 13.0462 0.339848 12.2702 0.893124 11.6978C1.01486 11.5084 1.1653 11.328 1.34621 11.161L12.6686 0.713803ZM14.7685 10.6263C15.8066 10.6263 16.6481 9.79374 16.6481 8.76671C16.6481 7.73968 15.8066 6.90711 14.7685 6.90711C13.7304 6.90711 12.8889 7.73968 12.8889 8.76671C12.8889 9.79374 13.7304 10.6263 14.7685 10.6263Z" fill="#11D034"/>
<path d="M9.608 33.672C8.52 33.672 7.648 33.392 6.992 32.832C6.336 32.256 5.976 31.488 5.912 30.528C5.88 30.048 5.864 29.712 5.864 29.52C5.864 29.328 5.88 28.912 5.912 28.272C5.96 27.296 6.304 26.52 6.944 25.944C7.584 25.368 8.472 25.08 9.608 25.08C10.728 25.08 11.608 25.368 12.248 25.944C12.888 26.52 13.232 27.296 13.28 28.272C13.312 28.912 13.328 29.328 13.328 29.52C13.328 29.712 13.312 30.048 13.28 30.528C13.216 31.488 12.856 32.256 12.2 32.832C11.544 33.392 10.68 33.672 9.608 33.672ZM7.688 42C7.528 42 7.392 41.96 7.28 41.88C7.184 41.784 7.136 41.664 7.136 41.52C7.136 41.424 7.168 41.336 7.232 41.256L19.088 25.656C19.216 25.496 19.336 25.384 19.448 25.32C19.56 25.24 19.72 25.2 19.928 25.2H21.632C21.792 25.2 21.92 25.248 22.016 25.344C22.128 25.424 22.184 25.536 22.184 25.68C22.184 25.776 22.152 25.864 22.088 25.944L10.232 41.544C10.104 41.704 9.984 41.824 9.872 41.904C9.76 41.968 9.6 42 9.392 42H7.688ZM9.608 31.584C10.28 31.584 10.648 31.192 10.712 30.408C10.744 29.896 10.76 29.56 10.76 29.4C10.76 29.192 10.744 28.864 10.712 28.416C10.696 28.064 10.592 27.776 10.4 27.552C10.224 27.328 9.96 27.216 9.608 27.216C9.24 27.216 8.968 27.328 8.792 27.552C8.616 27.776 8.512 28.064 8.48 28.416C8.464 28.64 8.456 28.968 8.456 29.4C8.456 29.816 8.464 30.152 8.48 30.408C8.544 31.192 8.92 31.584 9.608 31.584ZM19.76 42.12C18.672 42.12 17.8 41.84 17.144 41.28C16.504 40.704 16.144 39.928 16.064 38.952C16.048 38.68 16.04 38.312 16.04 37.848C16.04 37.368 16.048 36.984 16.064 36.696C16.128 35.704 16.472 34.92 17.096 34.344C17.736 33.768 18.624 33.48 19.76 33.48C20.896 33.48 21.776 33.768 22.4 34.344C23.04 34.92 23.392 35.704 23.456 36.696C23.488 37.336 23.504 37.752 23.504 37.944C23.504 38.136 23.488 38.472 23.456 38.952C23.392 39.912 23.032 40.68 22.376 41.256C21.72 41.832 20.848 42.12 19.76 42.12ZM19.76 40.008C20.128 40.008 20.4 39.896 20.576 39.672C20.752 39.432 20.856 39.144 20.888 38.808C20.92 38.328 20.936 37.992 20.936 37.8C20.936 37.592 20.92 37.264 20.888 36.816C20.856 36.48 20.752 36.2 20.576 35.976C20.4 35.736 20.128 35.616 19.76 35.616C19.392 35.616 19.12 35.736 18.944 35.976C18.768 36.2 18.672 36.48 18.656 36.816C18.64 37.04 18.632 37.368 18.632 37.8C18.632 38.232 18.64 38.568 18.656 38.808C18.688 39.16 18.784 39.448 18.944 39.672C19.12 39.896 19.392 40.008 19.76 40.008Z" fill="white"/>
</svg>
