<svg width="58" height="58" viewBox="0 0 58 58" fill="none" xmlns="http://www.w3.org/2000/svg">
<rect x="47.0097" y="3.51068" width="9.54729" height="7.42567" transform="rotate(45 47.0097 3.51068)" fill="white"/>
<path fill-rule="evenodd" clip-rule="evenodd" d="M52.2265 2.29736C53.7141 2.35716 54.9142 3.55727 54.974 5.04489L55.6304 21.3744C55.6409 21.6353 55.6184 21.8835 55.5676 22.1169C55.5533 22.9613 55.2261 23.7983 54.5851 24.4393L23.8973 55.1271C22.5767 56.4478 20.4239 56.4362 19.089 55.1014L2.16999 38.1823C0.835108 36.8474 0.823583 34.6947 2.14424 33.374L32.8321 2.68621C33.4731 2.04522 34.3101 1.71805 35.1544 1.70371C35.3879 1.65291 35.636 1.63042 35.897 1.64091L52.2265 2.29736ZM46.3662 11.308C47.1449 12.0867 48.4007 12.0934 49.171 11.323C49.9414 10.5526 49.9347 9.29685 49.156 8.51817C48.3773 7.73949 47.1216 7.73277 46.3512 8.50315C45.5808 9.27353 45.5875 10.5293 46.3662 11.308Z" fill="#11D034"/>
<path d="M17.0533 29.9986C16.7773 29.7226 16.7592 29.4646 16.9993 29.2245C17.0713 29.1525 17.1613 29.1105 17.2693 29.0985L37.8642 26.2901C38.0563 26.2661 38.2243 26.2661 38.3683 26.2901C38.5123 26.3141 38.6683 26.4101 38.8364 26.5781L40.1146 27.8563C40.3906 28.1324 40.4086 28.3904 40.1686 28.6304C40.0965 28.7024 40.0065 28.7444 39.8985 28.7565L19.3036 31.5648C19.1116 31.5889 18.9436 31.5889 18.7995 31.5648C18.6555 31.5408 18.4995 31.4448 18.3315 31.2768L17.0533 29.9986ZM26.0186 39.1439C25.2024 38.3278 24.7644 37.4577 24.7044 36.5336C24.6564 35.6214 24.9624 34.7753 25.6225 33.9952C25.9225 33.6711 26.1926 33.3891 26.4326 33.1491C26.6727 32.909 26.9667 32.627 27.3147 32.303C28.0949 31.6189 28.935 31.2948 29.8351 31.3308C30.7592 31.3668 31.6474 31.8109 32.4995 32.663C33.3636 33.5271 33.8077 34.4153 33.8317 35.3274C33.8677 36.2275 33.5436 37.0676 32.8595 37.8477C32.5475 38.2078 32.2714 38.5078 32.0314 38.7479C31.7914 38.9879 31.5033 39.2519 31.1673 39.54C30.3992 40.2121 29.5531 40.5181 28.6289 40.4581C27.7048 40.3981 26.8347 39.96 26.0186 39.1439ZM27.6028 37.5597C27.8068 37.7637 28.0048 37.8777 28.1969 37.9017C28.4009 37.9377 28.5989 37.9197 28.7909 37.8477C28.995 37.7637 29.175 37.6437 29.331 37.4877C29.6311 37.2357 29.8951 36.9956 30.1231 36.7676C30.3512 36.5396 30.5852 36.2815 30.8252 35.9935C31.0413 35.7534 31.1793 35.4834 31.2393 35.1834C31.3113 34.8713 31.1973 34.5653 30.8972 34.2652C30.5972 33.9652 30.2912 33.8512 29.9791 33.9232C29.6791 33.9832 29.409 34.1212 29.169 34.3372C28.893 34.5893 28.6409 34.8293 28.4129 35.0573C28.1849 35.2854 27.9388 35.5434 27.6748 35.8315C27.5308 35.9995 27.4108 36.1795 27.3147 36.3715C27.2427 36.5636 27.2247 36.7616 27.2607 36.9656C27.2967 37.1696 27.4108 37.3677 27.6028 37.5597ZM24.7404 25.1919C23.9123 24.3638 23.4622 23.4937 23.3902 22.5816C23.3422 21.6694 23.6542 20.8293 24.3263 20.0612C24.6144 19.7252 24.8724 19.4431 25.1004 19.2151C25.3525 18.9871 25.6525 18.711 26.0006 18.387C26.7687 17.6909 27.6028 17.3608 28.5029 17.3968C29.427 17.4329 30.3212 17.8829 31.1853 18.747C32.0494 19.6112 32.4935 20.4993 32.5175 21.4114C32.5535 22.3115 32.2234 23.1457 31.5273 23.9138C31.2153 24.2738 30.9393 24.5739 30.6992 24.8139C30.4712 25.0419 30.1891 25.3 29.8531 25.588C29.097 26.2721 28.2569 26.5841 27.3327 26.5241C26.4206 26.4521 25.5565 26.0081 24.7404 25.1919ZM26.2886 23.6437C26.4806 23.8358 26.6787 23.9498 26.8827 23.9858C27.0987 24.0098 27.3027 23.9858 27.4948 23.9138C27.6988 23.8298 27.8728 23.7157 28.0168 23.5717C28.3169 23.3197 28.5809 23.0796 28.809 22.8516C29.037 22.6236 29.271 22.3655 29.5111 22.0775C29.7271 21.8375 29.8591 21.5614 29.9071 21.2494C29.9791 20.9373 29.8711 20.6373 29.5831 20.3493C29.283 20.0492 28.971 19.9292 28.6469 19.9892C28.3469 20.0492 28.0768 20.1872 27.8368 20.4033C27.5608 20.6553 27.3087 20.8953 27.0807 21.1234C26.8527 21.3514 26.6066 21.6094 26.3426 21.8975C26.2106 22.0535 26.0966 22.2275 26.0006 22.4196C25.9285 22.6116 25.9045 22.8156 25.9285 23.0316C25.9646 23.2357 26.0846 23.4397 26.2886 23.6437Z" fill="white"/>
</svg>
