<svg width="58" height="58" viewBox="0 0 58 58" fill="none" xmlns="http://www.w3.org/2000/svg">
<path d="M27.5597 56.505C28.3463 57.3215 29.6537 57.3215 30.4403 56.505L34.2437 52.5573C34.7579 52.0235 35.5252 51.8179 36.2375 52.0231L41.5052 53.5402C42.5947 53.854 43.7269 53.2003 43.9999 52.0999L45.3198 46.7794C45.4983 46.06 46.06 45.4983 46.7794 45.3198L52.0999 43.9999C53.2003 43.7269 53.854 42.5947 53.5402 41.5052L52.0231 36.2375C51.8179 35.5252 52.0235 34.7579 52.5573 34.2437L56.505 30.4403C57.3215 29.6537 57.3215 28.3463 56.505 27.5597L52.5573 23.7563C52.0235 23.2421 51.8179 22.4748 52.0231 21.7625L53.5402 16.4948C53.854 15.4053 53.2003 14.2731 52.0999 14.0001L46.7794 12.6802C46.06 12.5017 45.4983 11.94 45.3198 11.2206L43.9999 5.90009C43.7269 4.79968 42.5947 4.14601 41.5052 4.45979L36.2375 5.97693C35.5252 6.18207 34.7579 5.97647 34.2437 5.44269L30.4403 1.49497C29.6537 0.67848 28.3463 0.67848 27.5597 1.49497L23.7563 5.44269C23.2421 5.97647 22.4748 6.18207 21.7625 5.97693L16.4948 4.45979C15.4053 4.14601 14.2731 4.79968 14.0001 5.90009L12.6802 11.2206C12.5017 11.94 11.94 12.5017 11.2206 12.6802L5.90009 14.0001C4.79968 14.2731 4.14601 15.4053 4.45979 16.4948L5.97693 21.7625C6.18207 22.4748 5.97647 23.2421 5.44269 23.7563L1.49497 27.5597C0.67848 28.3463 0.67848 29.6537 1.49497 30.4403L5.44269 34.2437C5.97647 34.7579 6.18207 35.5252 5.97693 36.2375L4.45979 41.5052C4.14601 42.5947 4.79968 43.7269 5.90009 43.9999L11.2206 45.3198C11.94 45.4983 12.5017 46.06 12.6802 46.7794L14.0001 52.0999C14.2731 53.2003 15.4053 53.854 16.4948 53.5402L21.7625 52.0231C22.4748 51.8179 23.2421 52.0235 23.7563 52.5573L27.5597 56.505Z" fill="#FF1F4F"/>
<path d="M20.875 24.5V35H18.88L13.645 28.625V35H11.245V24.5H13.255L18.475 30.875V24.5H20.875ZM31.4893 33.05V35H23.3593V24.5H31.2943V26.45H25.7743V28.73H30.6493V30.62H25.7743V33.05H31.4893ZM49.1463 24.5L45.7113 35H43.1013L40.7913 27.89L38.4063 35H35.8113L32.3613 24.5H34.8813L37.2513 31.88L39.7263 24.5H41.9763L44.3763 31.94L46.8213 24.5H49.1463Z" fill="white"/>
</svg>
