<svg width="58" height="58" viewBox="0 0 58 58" fill="none" xmlns="http://www.w3.org/2000/svg">
<g clip-path="url(#clip0_1747_201)">
<path d="M47.4428 49.4675C48.5763 49.4886 49.5008 48.5641 49.4796 47.4306L49.3776 41.9497C49.3638 41.2086 49.761 40.5207 50.4097 40.1621L55.2073 37.5101C56.1995 36.9616 56.5379 35.6988 55.9528 34.7276L53.124 30.0321C52.7415 29.3972 52.7415 28.6028 53.124 27.9679L55.9528 23.2724C56.5379 22.3013 56.1995 21.0385 55.2073 20.49L50.4097 17.8379C49.761 17.4793 49.3638 16.7914 49.3776 16.0503L49.4796 10.5695C49.5008 9.43589 48.5763 8.51146 47.4428 8.53257L41.9619 8.63464C41.2208 8.64844 40.5329 8.25126 40.1743 7.60257L37.5223 2.80497C36.9738 1.81271 35.711 1.47434 34.7398 2.05941L30.0443 4.88824C29.4094 5.27073 28.615 5.27073 27.9801 4.88824L23.2846 2.05941C22.3135 1.47434 21.0507 1.81271 20.5022 2.80497L17.8501 7.60256C17.4915 8.25126 16.8036 8.64844 16.0625 8.63464L10.5817 8.53257C9.44808 8.51146 8.52365 9.43589 8.54476 10.5695L8.64684 16.0503C8.66064 16.7914 8.26345 17.4793 7.61476 17.8379L2.81716 20.49C1.8249 21.0385 1.48654 22.3013 2.07161 23.2724L4.90043 27.9679C5.28292 28.6028 5.28292 29.3972 4.90043 30.0321L2.07161 34.7276C1.48654 35.6988 1.8249 36.9616 2.81716 37.5101L7.61476 40.1621C8.26345 40.5207 8.66064 41.2086 8.64684 41.9497L8.54476 47.4306C8.52365 48.5641 9.44808 49.4886 10.5817 49.4675L16.0625 49.3654C16.8036 49.3516 17.4915 49.7488 17.8501 50.3975L20.5022 55.1951C21.0507 56.1873 22.3135 56.5257 23.2846 55.9406L27.9801 53.1118C28.615 52.7293 29.4094 52.7293 30.0443 53.1118L34.7398 55.9406C35.711 56.5257 36.9738 56.1873 37.5223 55.1951L40.1743 50.3975C40.5329 49.7488 41.2208 49.3516 41.9619 49.3654L47.4428 49.4675Z" fill="#FF1F4F"/>
<path d="M20.085 31.5633L27.5096 38.9879L26.0989 40.3986L17.8894 39.5925L22.3972 44.1003L20.7002 45.7973L13.2755 38.3727L14.6968 36.9514L22.8957 37.7681L18.3879 33.2603L20.085 31.5633ZM33.6362 30.1036L35.015 31.4825L29.2662 37.2313L21.8416 29.8066L27.4525 24.1958L28.8314 25.5746L24.9281 29.4778L26.5403 31.09L29.9875 27.6429L31.3239 28.9793L27.8768 32.4265L29.595 34.1448L33.6362 30.1036ZM40.0758 11.5725L45.0715 21.426L43.2259 23.2716L36.565 19.8775L39.9061 26.5914L38.0711 28.4264L28.207 23.4413L29.9889 21.6594L36.8832 25.202L33.4148 18.2334L35.0058 16.6424L41.9637 20.2063L38.4317 13.2165L40.0758 11.5725Z" fill="white"/>
</g>
<defs>
<clipPath id="clip0_1747_201">
<rect width="58" height="58" fill="white"/>
</clipPath>
</defs>
</svg>
