<svg width="41" height="58" viewBox="0 0 41 58" fill="none" xmlns="http://www.w3.org/2000/svg">
<circle cx="20.5" cy="17.5" r="17.5" fill="#2A94DF"/>
<path fill-rule="evenodd" clip-rule="evenodd" d="M32.7889 32.6412C29.4351 35.3666 25.1583 37 20.5 37C15.6058 37 11.1328 35.197 7.70882 32.2189L0 52.8489L9.569 48.5639L13.7439 57.8546L20.17 40.6573L26.6504 58L30.8253 48.7093L40.3943 52.9943L32.7889 32.6412Z" fill="#2A94DF"/>
<path d="M10.736 16.184H8.048V14.6H15.368V16.184H12.68V23H10.736V16.184ZM20.3648 23.144C19.4928 23.144 18.7048 22.956 18.0008 22.58C17.3048 22.204 16.7568 21.688 16.3568 21.032C15.9648 20.368 15.7688 19.624 15.7688 18.8C15.7688 17.976 15.9648 17.236 16.3568 16.58C16.7568 15.916 17.3048 15.396 18.0008 15.02C18.7048 14.644 19.4928 14.456 20.3648 14.456C21.2368 14.456 22.0208 14.644 22.7168 15.02C23.4128 15.396 23.9608 15.916 24.3608 16.58C24.7608 17.236 24.9608 17.976 24.9608 18.8C24.9608 19.624 24.7608 20.368 24.3608 21.032C23.9608 21.688 23.4128 22.204 22.7168 22.58C22.0208 22.956 21.2368 23.144 20.3648 23.144ZM20.3648 21.488C20.8608 21.488 21.3088 21.376 21.7088 21.152C22.1088 20.92 22.4208 20.6 22.6448 20.192C22.8768 19.784 22.9928 19.32 22.9928 18.8C22.9928 18.28 22.8768 17.816 22.6448 17.408C22.4208 17 22.1088 16.684 21.7088 16.46C21.3088 16.228 20.8608 16.112 20.3648 16.112C19.8688 16.112 19.4208 16.228 19.0208 16.46C18.6208 16.684 18.3048 17 18.0728 17.408C17.8488 17.816 17.7368 18.28 17.7368 18.8C17.7368 19.32 17.8488 19.784 18.0728 20.192C18.3048 20.6 18.6208 20.92 19.0208 21.152C19.4208 21.376 19.8688 21.488 20.3648 21.488ZM30.0578 14.6C30.8018 14.6 31.4458 14.724 31.9898 14.972C32.5418 15.22 32.9658 15.572 33.2618 16.028C33.5578 16.484 33.7058 17.024 33.7058 17.648C33.7058 18.264 33.5578 18.804 33.2618 19.268C32.9658 19.724 32.5418 20.076 31.9898 20.324C31.4458 20.564 30.8018 20.684 30.0578 20.684H28.3658V23H26.4218V14.6H30.0578ZM29.9498 19.1C30.5338 19.1 30.9778 18.976 31.2818 18.728C31.5858 18.472 31.7378 18.112 31.7378 17.648C31.7378 17.176 31.5858 16.816 31.2818 16.568C30.9778 16.312 30.5338 16.184 29.9498 16.184H28.3658V19.1H29.9498Z" fill="white"/>
</svg>
