<svg width="58" height="58" viewBox="0 0 58 58" fill="none" xmlns="http://www.w3.org/2000/svg">
<g clip-path="url(#clip0_1747_203)">
<circle cx="31.1187" cy="19.1703" r="17.2104" fill="#2A94DF"/>
<path fill-rule="evenodd" clip-rule="evenodd" d="M43.2043 34.0609C39.906 36.7411 35.7 38.3475 31.1188 38.3475C26.3056 38.3475 21.9065 36.5743 18.5393 33.6456L10.958 53.9342L20.3686 49.7201L24.4744 58.857L30.7942 41.9444L37.1674 59L41.2731 49.8631L50.6838 54.0771L43.2043 34.0609Z" fill="#2A94DF"/>
<path d="M21.5163 23.7778V17.0746H18.8728V15.5168H26.0717V17.0746H23.4281V23.7778H21.5163ZM30.9975 23.9194C30.3445 23.9194 29.7387 23.8132 29.1801 23.6008C28.6294 23.3884 28.1495 23.0894 27.7404 22.7039C27.3391 22.3184 27.0244 21.866 26.7962 21.3467C26.576 20.8275 26.4658 20.261 26.4658 19.6473C26.4658 19.0337 26.576 18.4672 26.7962 17.9479C27.0244 17.4287 27.343 16.9763 27.7522 16.5908C28.1613 16.2053 28.6412 15.9063 29.1919 15.6939C29.7427 15.4814 30.3406 15.3752 30.9857 15.3752C31.6388 15.3752 32.2367 15.4814 32.7796 15.6939C33.3303 15.9063 33.8063 16.2053 34.2075 16.5908C34.6166 16.9763 34.9353 17.4287 35.1634 17.9479C35.3916 18.4593 35.5057 19.0258 35.5057 19.6473C35.5057 20.261 35.3916 20.8314 35.1634 21.3585C34.9353 21.8778 34.6166 22.3302 34.2075 22.7157C33.8063 23.0934 33.3303 23.3884 32.7796 23.6008C32.2367 23.8132 31.6427 23.9194 30.9975 23.9194ZM30.9857 22.2909C31.3555 22.2909 31.6938 22.2279 32.0007 22.102C32.3154 21.9762 32.5907 21.7952 32.8268 21.5592C33.0628 21.3231 33.2437 21.0438 33.3696 20.7213C33.5034 20.3987 33.5703 20.0407 33.5703 19.6473C33.5703 19.254 33.5034 18.896 33.3696 18.5734C33.2437 18.2508 33.0628 17.9715 32.8268 17.7355C32.5986 17.4995 32.3272 17.3185 32.0125 17.1926C31.6978 17.0668 31.3555 17.0038 30.9857 17.0038C30.616 17.0038 30.2737 17.0668 29.959 17.1926C29.6522 17.3185 29.3808 17.4995 29.1447 17.7355C28.9087 17.9715 28.7238 18.2508 28.5901 18.5734C28.4642 18.896 28.4012 19.254 28.4012 19.6473C28.4012 20.0329 28.4642 20.3908 28.5901 20.7213C28.7238 21.0438 28.9048 21.3231 29.1329 21.5592C29.3689 21.7952 29.6443 21.9762 29.959 22.102C30.2737 22.2279 30.616 22.2909 30.9857 22.2909ZM36.9425 23.7778V15.5168H40.5183C41.2579 15.5168 41.8952 15.6388 42.4302 15.8827C42.9652 16.1187 43.3782 16.461 43.6693 16.9094C43.9604 17.3579 44.106 17.8929 44.106 18.5144C44.106 19.1281 43.9604 19.6591 43.6693 20.1076C43.3782 20.556 42.9652 20.9022 42.4302 21.1461C41.8952 21.3821 41.2579 21.5002 40.5183 21.5002H38.0046L38.8543 20.6387V23.7778H36.9425ZM38.8543 20.8511L38.0046 19.9424H40.4121C41.0022 19.9424 41.4428 19.8165 41.7339 19.5647C42.025 19.313 42.1705 18.9629 42.1705 18.5144C42.1705 18.0581 42.025 17.704 41.7339 17.4523C41.4428 17.2005 41.0022 17.0746 40.4121 17.0746H38.0046L38.8543 16.1659V20.8511Z" fill="white"/>
</g>
<defs>
<clipPath id="clip0_1747_203">
<rect width="58" height="58" fill="white"/>
</clipPath>
</defs>
</svg>
